<svg xmlns="http://www.w3.org/2000/svg" version="1.1" xmlns:xlink="http://www.w3.org/1999/xlink" xmlns:svgjs="http://svgjs.com/svgjs" width="1000" height="1000" preserveAspectRatio="none" viewBox="0 0 1000 1000"><g mask="url(&quot;#SvgjsMask1082&quot;)" fill="none"><rect width="1000" height="1000" x="0" y="0" fill="#0e2a47"></rect><g><path d="M546 154L518 182M490 42L490 70L490 98L490 126L490 154L490 182L490 210L490 238L462 266L462 294M546 490L574 518L574 546L574 574M546 518L518 546L490 574M546 378L574 406L574 434M546 546L546 574L546 602L546 630L574 658M546 266L574 294L574 322L574 350L574 378M490 -14L490 14L490 42L518 70L518 98L518 126L546 154L546 182L546 210L546 238L546 266L546 294L546 322L546 350L546 378L546 406L546 434L546 462L546 490L546 518L546 546L518 574L518 602L518 630L546 658L546 686L546 714L546 742L546 770" stroke="#dd1133" stroke-width="4.67"></path><path d="M541.33 770 a4.67 4.67 0 1 0 9.34 0 a4.67 4.67 0 1 0 -9.34 0zM513.33 182 a4.67 4.67 0 1 0 9.34 0 a4.67 4.67 0 1 0 -9.34 0zM457.33 294 a4.67 4.67 0 1 0 9.34 0 a4.67 4.67 0 1 0 -9.34 0zM569.33 574 a4.67 4.67 0 1 0 9.34 0 a4.67 4.67 0 1 0 -9.34 0zM485.33 574 a4.67 4.67 0 1 0 9.34 0 a4.67 4.67 0 1 0 -9.34 0zM569.33 434 a4.67 4.67 0 1 0 9.34 0 a4.67 4.67 0 1 0 -9.34 0zM569.33 658 a4.67 4.67 0 1 0 9.34 0 a4.67 4.67 0 1 0 -9.34 0zM569.33 378 a4.67 4.67 0 1 0 9.34 0 a4.67 4.67 0 1 0 -9.34 0z" fill="#dd1133"></path><path d="M518 -14L518 14L518 42L546 70L546 98L546 126L574 154L574 182L574 210L574 238" stroke="rgba(208, 225, 34, 1)" stroke-width="4.67"></path><path d="M569.33 238 a4.67 4.67 0 1 0 9.34 0 a4.67 4.67 0 1 0 -9.34 0z" fill="rgba(208, 225, 34, 1)"></path><path d="M462 -14L462 14" stroke="#dd1133" stroke-width="4.67"></path><path d="M457.33 14 a4.67 4.67 0 1 0 9.34 0 a4.67 4.67 0 1 0 -9.34 0z" fill="#dd1133"></path><path d="M546 -14L546 14" stroke="#dd1133" stroke-width="4.67"></path><path d="M541.33 14 a4.67 4.67 0 1 0 9.34 0 a4.67 4.67 0 1 0 -9.34 0z" fill="#dd1133"></path><path d="M434 98L462 126M434 210L462 238M434 378L462 406L462 434L462 462L434 490M434 406L406 434L406 462M434 -14L434 14L434 42L434 70L434 98L434 126L434 154L434 182L434 210L434 238L434 266L434 294L434 322L434 350L434 378L434 406L434 434" stroke="#3a7cc3" stroke-width="4.67"></path><path d="M429.33 434 a4.67 4.67 0 1 0 9.34 0 a4.67 4.67 0 1 0 -9.34 0zM457.33 126 a4.67 4.67 0 1 0 9.34 0 a4.67 4.67 0 1 0 -9.34 0zM457.33 238 a4.67 4.67 0 1 0 9.34 0 a4.67 4.67 0 1 0 -9.34 0zM429.33 490 a4.67 4.67 0 1 0 9.34 0 a4.67 4.67 0 1 0 -9.34 0zM401.33 462 a4.67 4.67 0 1 0 9.34 0 a4.67 4.67 0 1 0 -9.34 0z" fill="#3a7cc3"></path><path d="M574 -14L574 14L574 42L574 70L574 98L574 126L602 154L602 182L602 210L602 238L602 266L602 294L602 322" stroke="#dd1133" stroke-width="4.67"></path><path d="M597.33 322 a4.67 4.67 0 1 0 9.34 0 a4.67 4.67 0 1 0 -9.34 0z" fill="#dd1133"></path><path d="M350 434L378 462L378 490L378 518L406 546M406 350L406 378L406 406M378 406L378 434M406 -14L406 14L406 42L406 70L406 98L406 126L406 154L406 182L406 210L406 238L406 266L406 294L406 322L406 350L378 378L378 406L350 434L350 462" stroke="#3a7cc3" stroke-width="4.67"></path><path d="M345.33 462 a4.67 4.67 0 1 0 9.34 0 a4.67 4.67 0 1 0 -9.34 0zM401.33 546 a4.67 4.67 0 1 0 9.34 0 a4.67 4.67 0 1 0 -9.34 0zM401.33 406 a4.67 4.67 0 1 0 9.34 0 a4.67 4.67 0 1 0 -9.34 0zM373.33 434 a4.67 4.67 0 1 0 9.34 0 a4.67 4.67 0 1 0 -9.34 0z" fill="#3a7cc3"></path><path d="M658 742L686 770M602 42L630 70M658 434L686 462L686 490M630 266L658 294L658 322L686 350L686 378L686 406L686 434M658 686L686 714L686 742M658 546L686 574L714 602L714 630L714 658M658 574L630 602L630 630L630 658M602 -14L602 14L602 42L602 70L602 98L602 126L630 154L630 182L630 210L630 238L630 266L630 294L630 322L658 350L658 378L658 406L658 434L658 462L658 490L658 518L658 546L658 574L658 602L658 630L658 658L658 686L658 714L658 742L658 770" stroke="#dd1133" stroke-width="4.67"></path><path d="M653.33 770 a4.67 4.67 0 1 0 9.34 0 a4.67 4.67 0 1 0 -9.34 0zM681.33 770 a4.67 4.67 0 1 0 9.34 0 a4.67 4.67 0 1 0 -9.34 0zM625.33 70 a4.67 4.67 0 1 0 9.34 0 a4.67 4.67 0 1 0 -9.34 0zM681.33 490 a4.67 4.67 0 1 0 9.34 0 a4.67 4.67 0 1 0 -9.34 0zM681.33 434 a4.67 4.67 0 1 0 9.34 0 a4.67 4.67 0 1 0 -9.34 0zM681.33 742 a4.67 4.67 0 1 0 9.34 0 a4.67 4.67 0 1 0 -9.34 0zM709.33 658 a4.67 4.67 0 1 0 9.34 0 a4.67 4.67 0 1 0 -9.34 0zM625.33 658 a4.67 4.67 0 1 0 9.34 0 a4.67 4.67 0 1 0 -9.34 0z" fill="#dd1133"></path><path d="M322 602L350 630L350 658L350 686L350 714L350 742L378 770L378 798M322 658L294 686L294 714M322 574L350 602L378 630M378 238L350 266L350 294L350 322M378 210L350 238M322 490L350 518L350 546L350 574M350 350L322 378L322 406M378 -14L378 14L378 42L378 70L378 98L378 126L378 154L378 182L378 210L378 238L378 266L378 294L378 322L350 350L350 378L350 406L322 434L322 462L322 490L322 518L322 546L322 574L322 602L322 630L322 658L322 686L322 714L322 742" stroke="#dd1133" stroke-width="4.67"></path><path d="M317.33 742 a4.67 4.67 0 1 0 9.34 0 a4.67 4.67 0 1 0 -9.34 0zM373.33 798 a4.67 4.67 0 1 0 9.34 0 a4.67 4.67 0 1 0 -9.34 0zM289.33 714 a4.67 4.67 0 1 0 9.34 0 a4.67 4.67 0 1 0 -9.34 0zM373.33 630 a4.67 4.67 0 1 0 9.34 0 a4.67 4.67 0 1 0 -9.34 0zM345.33 322 a4.67 4.67 0 1 0 9.34 0 a4.67 4.67 0 1 0 -9.34 0zM345.33 238 a4.67 4.67 0 1 0 9.34 0 a4.67 4.67 0 1 0 -9.34 0zM345.33 574 a4.67 4.67 0 1 0 9.34 0 a4.67 4.67 0 1 0 -9.34 0zM317.33 406 a4.67 4.67 0 1 0 9.34 0 a4.67 4.67 0 1 0 -9.34 0z" fill="#dd1133"></path><path d="M658 14L630 42M658 70L630 98M714 126L686 154L658 182M630 -14L658 14L658 42L658 70L686 98L714 126L714 154" stroke="#3a7cc3" stroke-width="4.67"></path><path d="M709.33 154 a4.67 4.67 0 1 0 9.34 0 a4.67 4.67 0 1 0 -9.34 0zM625.33 42 a4.67 4.67 0 1 0 9.34 0 a4.67 4.67 0 1 0 -9.34 0zM625.33 98 a4.67 4.67 0 1 0 9.34 0 a4.67 4.67 0 1 0 -9.34 0zM653.33 182 a4.67 4.67 0 1 0 9.34 0 a4.67 4.67 0 1 0 -9.34 0z" fill="#3a7cc3"></path><path d="M294 602L266 630L238 658L238 686L238 714L238 742L238 770L238 798L238 826L238 854L238 882M294 574L266 602L238 630M322 322L322 350M294 490L266 518L266 546L266 574L238 602L210 630L182 658L182 686L182 714L182 742M294 462L266 490M322 266L294 294L294 322M350 -14L350 14L350 42L350 70L350 98L350 126L350 154L350 182L322 210L322 238L322 266L322 294L322 322L294 350L294 378L294 406L294 434L294 462L294 490L294 518L294 546L294 574L294 602L294 630" stroke="#3a7cc3" stroke-width="4.67"></path><path d="M289.33 630 a4.67 4.67 0 1 0 9.34 0 a4.67 4.67 0 1 0 -9.34 0zM233.33 882 a4.67 4.67 0 1 0 9.34 0 a4.67 4.67 0 1 0 -9.34 0zM233.33 630 a4.67 4.67 0 1 0 9.34 0 a4.67 4.67 0 1 0 -9.34 0zM317.33 350 a4.67 4.67 0 1 0 9.34 0 a4.67 4.67 0 1 0 -9.34 0zM177.33 742 a4.67 4.67 0 1 0 9.34 0 a4.67 4.67 0 1 0 -9.34 0zM261.33 490 a4.67 4.67 0 1 0 9.34 0 a4.67 4.67 0 1 0 -9.34 0zM289.33 322 a4.67 4.67 0 1 0 9.34 0 a4.67 4.67 0 1 0 -9.34 0z" fill="#3a7cc3"></path><path d="M770 322L742 350M770 378L742 406L742 434M742 210L714 238L714 266L742 294M742 686L742 714L742 742L742 770L742 798L742 826L742 854L742 882M686 42L714 70M742 658L770 686L798 714L798 742L798 770M658 -14L686 14L686 42L686 70L714 98L742 126L742 154L742 182L742 210L742 238L742 266L770 294L770 322L770 350L770 378L770 406L770 434L770 462L770 490L770 518L770 546L770 574L742 602L742 630L742 658L742 686L770 714" stroke="#3a7cc3" stroke-width="4.67"></path><path d="M765.33 714 a4.67 4.67 0 1 0 9.34 0 a4.67 4.67 0 1 0 -9.34 0zM737.33 350 a4.67 4.67 0 1 0 9.34 0 a4.67 4.67 0 1 0 -9.34 0zM737.33 434 a4.67 4.67 0 1 0 9.34 0 a4.67 4.67 0 1 0 -9.34 0zM737.33 294 a4.67 4.67 0 1 0 9.34 0 a4.67 4.67 0 1 0 -9.34 0zM737.33 882 a4.67 4.67 0 1 0 9.34 0 a4.67 4.67 0 1 0 -9.34 0zM709.33 70 a4.67 4.67 0 1 0 9.34 0 a4.67 4.67 0 1 0 -9.34 0zM793.33 770 a4.67 4.67 0 1 0 9.34 0 a4.67 4.67 0 1 0 -9.34 0z" fill="#3a7cc3"></path><path d="M322 -14L322 14L322 42L322 70L322 98L322 126L322 154L322 182L294 210L294 238" stroke="rgba(208, 225, 34, 1)" stroke-width="4.67"></path><path d="M289.33 238 a4.67 4.67 0 1 0 9.34 0 a4.67 4.67 0 1 0 -9.34 0z" fill="rgba(208, 225, 34, 1)"></path><path d="M798 462L826 490M798 434L826 462L854 490M686 -14L714 14L742 42L742 70L742 98L770 126L770 154L770 182L770 210L770 238L770 266L798 294L798 322L798 350L798 378L798 406L798 434L798 462L798 490L798 518" stroke="rgba(208, 225, 34, 1)" stroke-width="4.67"></path><path d="M793.33 518 a4.67 4.67 0 1 0 9.34 0 a4.67 4.67 0 1 0 -9.34 0zM821.33 490 a4.67 4.67 0 1 0 9.34 0 a4.67 4.67 0 1 0 -9.34 0zM849.33 490 a4.67 4.67 0 1 0 9.34 0 a4.67 4.67 0 1 0 -9.34 0z" fill="rgba(208, 225, 34, 1)"></path><path d="M294 -14L294 14L294 42L294 70L294 98L294 126L294 154L294 182L266 210L266 238L266 266L266 294L266 322L266 350L266 378L266 406L266 434" stroke="#dd1133" stroke-width="4.67"></path><path d="M261.33 434 a4.67 4.67 0 1 0 9.34 0 a4.67 4.67 0 1 0 -9.34 0z" fill="#dd1133"></path><path d="M826 378L854 406M826 350L854 378M798 126L826 154L826 182L826 210L826 238M826 322L854 350M714 -14L742 14L770 42L770 70L770 98L798 126L798 154L798 182L798 210L798 238L798 266L826 294L826 322L826 350L826 378L826 406" stroke="#3a7cc3" stroke-width="4.67"></path><path d="M821.33 406 a4.67 4.67 0 1 0 9.34 0 a4.67 4.67 0 1 0 -9.34 0zM849.33 406 a4.67 4.67 0 1 0 9.34 0 a4.67 4.67 0 1 0 -9.34 0zM849.33 378 a4.67 4.67 0 1 0 9.34 0 a4.67 4.67 0 1 0 -9.34 0zM821.33 238 a4.67 4.67 0 1 0 9.34 0 a4.67 4.67 0 1 0 -9.34 0zM849.33 350 a4.67 4.67 0 1 0 9.34 0 a4.67 4.67 0 1 0 -9.34 0z" fill="#3a7cc3"></path><path d="M266 126L238 154L238 182L210 210L210 238M266 70L238 98L238 126L210 154L210 182M238 406L210 434L210 462L210 490M266 42L238 70L210 98L210 126M238 294L210 322L210 350L210 378L210 406L182 434L182 462L182 490M266 -14L266 14L266 42L266 70L266 98L266 126L266 154L266 182L238 210L238 238L238 266L238 294L238 322L238 350L238 378L238 406L238 434L238 462L238 490L238 518L238 546" stroke="rgba(208, 225, 34, 1)" stroke-width="4.67"></path><path d="M233.33 546 a4.67 4.67 0 1 0 9.34 0 a4.67 4.67 0 1 0 -9.34 0zM205.33 238 a4.67 4.67 0 1 0 9.34 0 a4.67 4.67 0 1 0 -9.34 0zM205.33 182 a4.67 4.67 0 1 0 9.34 0 a4.67 4.67 0 1 0 -9.34 0zM205.33 490 a4.67 4.67 0 1 0 9.34 0 a4.67 4.67 0 1 0 -9.34 0zM205.33 126 a4.67 4.67 0 1 0 9.34 0 a4.67 4.67 0 1 0 -9.34 0zM177.33 490 a4.67 4.67 0 1 0 9.34 0 a4.67 4.67 0 1 0 -9.34 0z" fill="rgba(208, 225, 34, 1)"></path></g></g><defs><mask id="SvgjsMask1082"><rect width="1000" height="1000" fill="#ffffff"></rect></mask></defs></svg>