<svg xmlns="http://www.w3.org/2000/svg" version="1.1" xmlns:xlink="http://www.w3.org/1999/xlink" xmlns:svgjs="http://svgjs.com/svgjs" width="1000" height="600" preserveAspectRatio="none" viewBox="0 0 1000 600"><g mask="url(&quot;#SvgjsMask1013&quot;)" fill="none"><rect width="1000" height="600" x="0" y="0" fill="#0e2a47"></rect><g><path d="M574 266L602 238L630 210L658 210L686 210M462 294L490 266L518 238L546 238L574 238M518 266L546 294M490 294L518 294L546 322L574 322M658 266L686 238L714 238M378 294L406 266M-14 294L14 294L42 294L70 294L98 294L126 294L154 294L182 294L210 294L238 294L266 294L294 294L322 294L350 294L378 294L406 294L434 294L462 294L490 294L518 266L546 266L574 266L602 266L630 266L658 266L686 266L714 266" stroke="#3a7cc3" stroke-width="4.67"></path><path d="M709.33 266 a4.67 4.67 0 1 0 9.34 0 a4.67 4.67 0 1 0 -9.34 0zM681.33 210 a4.67 4.67 0 1 0 9.34 0 a4.67 4.67 0 1 0 -9.34 0zM569.33 238 a4.67 4.67 0 1 0 9.34 0 a4.67 4.67 0 1 0 -9.34 0zM541.33 294 a4.67 4.67 0 1 0 9.34 0 a4.67 4.67 0 1 0 -9.34 0zM569.33 322 a4.67 4.67 0 1 0 9.34 0 a4.67 4.67 0 1 0 -9.34 0zM709.33 238 a4.67 4.67 0 1 0 9.34 0 a4.67 4.67 0 1 0 -9.34 0zM401.33 266 a4.67 4.67 0 1 0 9.34 0 a4.67 4.67 0 1 0 -9.34 0z" fill="#3a7cc3"></path><path d="M210 350L238 322L266 322L294 322M406 322L434 350L462 350M490 350L518 322M574 350L602 378M322 350L350 322M-14 322L14 322L42 322L70 322L98 322L126 322L154 322L182 322L210 350L238 350L266 350L294 350L322 350L350 350L378 322L406 322L434 322L462 322L490 350L518 350L546 350L574 350L602 350" stroke="#dd1133" stroke-width="4.67"></path><path d="M597.33 350 a4.67 4.67 0 1 0 9.34 0 a4.67 4.67 0 1 0 -9.34 0zM289.33 322 a4.67 4.67 0 1 0 9.34 0 a4.67 4.67 0 1 0 -9.34 0zM457.33 350 a4.67 4.67 0 1 0 9.34 0 a4.67 4.67 0 1 0 -9.34 0zM513.33 322 a4.67 4.67 0 1 0 9.34 0 a4.67 4.67 0 1 0 -9.34 0zM597.33 378 a4.67 4.67 0 1 0 9.34 0 a4.67 4.67 0 1 0 -9.34 0zM345.33 322 a4.67 4.67 0 1 0 9.34 0 a4.67 4.67 0 1 0 -9.34 0z" fill="#dd1133"></path><path d="M322 266L350 266M742 182L770 154L798 154L826 126L854 98M70 266L98 238L126 238L154 238L182 238L210 238L238 238L266 238M378 238L406 210M602 182L630 154L658 154L686 154L714 154L742 154L770 126M294 266L322 238M546 210L574 210L602 210M714 182L742 210L770 210L798 210M-14 266L14 266L42 266L70 266L98 266L126 266L154 266L182 266L210 266L238 266L266 266L294 266L322 266L350 238L378 238L406 238L434 210L462 210L490 210L518 210L546 210L574 182L602 182L630 182L658 182L686 182L714 182L742 182L770 182L798 182L826 182L854 182L882 182L910 182L938 182" stroke="rgba(208, 225, 34, 1)" stroke-width="4.67"></path><path d="M933.33 182 a4.67 4.67 0 1 0 9.34 0 a4.67 4.67 0 1 0 -9.34 0zM345.33 266 a4.67 4.67 0 1 0 9.34 0 a4.67 4.67 0 1 0 -9.34 0zM849.33 98 a4.67 4.67 0 1 0 9.34 0 a4.67 4.67 0 1 0 -9.34 0zM261.33 238 a4.67 4.67 0 1 0 9.34 0 a4.67 4.67 0 1 0 -9.34 0zM401.33 210 a4.67 4.67 0 1 0 9.34 0 a4.67 4.67 0 1 0 -9.34 0zM765.33 126 a4.67 4.67 0 1 0 9.34 0 a4.67 4.67 0 1 0 -9.34 0zM317.33 238 a4.67 4.67 0 1 0 9.34 0 a4.67 4.67 0 1 0 -9.34 0zM597.33 210 a4.67 4.67 0 1 0 9.34 0 a4.67 4.67 0 1 0 -9.34 0zM793.33 210 a4.67 4.67 0 1 0 9.34 0 a4.67 4.67 0 1 0 -9.34 0z" fill="rgba(208, 225, 34, 1)"></path><path d="M70 350L98 378L126 378L154 378L182 378M462 378L490 378L518 378M-14 350L14 350L42 350L70 350L98 350L126 350L154 350L182 350L210 378L238 378L266 378L294 378L322 378L350 378L378 378L406 378L434 378L462 378L490 406" stroke="rgba(208, 225, 34, 1)" stroke-width="4.67"></path><path d="M485.33 406 a4.67 4.67 0 1 0 9.34 0 a4.67 4.67 0 1 0 -9.34 0zM177.33 378 a4.67 4.67 0 1 0 9.34 0 a4.67 4.67 0 1 0 -9.34 0zM513.33 378 a4.67 4.67 0 1 0 9.34 0 a4.67 4.67 0 1 0 -9.34 0z" fill="rgba(208, 225, 34, 1)"></path><path d="M-14 238L14 238L42 238" stroke="#dd1133" stroke-width="4.67"></path><path d="M37.33 238 a4.67 4.67 0 1 0 9.34 0 a4.67 4.67 0 1 0 -9.34 0z" fill="#dd1133"></path><path d="M574 434L602 434L630 434L658 434M434 406L462 434L490 462M266 406L294 434L322 434L350 434L378 434M154 406L182 434L210 434L238 434L266 434L294 462L322 462L350 462M658 462L686 490M406 406L434 434L462 462M630 462L658 490M-14 378L14 378L42 378L70 406L98 406L126 406L154 406L182 406L210 406L238 406L266 406L294 406L322 406L350 406L378 406L406 406L434 406L462 406L490 434L518 434L546 434L574 434L602 462L630 462L658 462L686 462L714 462L742 462" stroke="rgba(208, 225, 34, 1)" stroke-width="4.67"></path><path d="M737.33 462 a4.67 4.67 0 1 0 9.34 0 a4.67 4.67 0 1 0 -9.34 0zM653.33 434 a4.67 4.67 0 1 0 9.34 0 a4.67 4.67 0 1 0 -9.34 0zM485.33 462 a4.67 4.67 0 1 0 9.34 0 a4.67 4.67 0 1 0 -9.34 0zM373.33 434 a4.67 4.67 0 1 0 9.34 0 a4.67 4.67 0 1 0 -9.34 0zM345.33 462 a4.67 4.67 0 1 0 9.34 0 a4.67 4.67 0 1 0 -9.34 0zM681.33 490 a4.67 4.67 0 1 0 9.34 0 a4.67 4.67 0 1 0 -9.34 0zM457.33 462 a4.67 4.67 0 1 0 9.34 0 a4.67 4.67 0 1 0 -9.34 0zM653.33 490 a4.67 4.67 0 1 0 9.34 0 a4.67 4.67 0 1 0 -9.34 0z" fill="rgba(208, 225, 34, 1)"></path><path d="M462 182L490 154L518 154L546 154L574 126L602 126M406 182L434 154L462 154L490 126L518 126M378 182L406 154L434 126L462 126M266 210L294 182L322 182L350 182M350 210L378 210M-14 210L14 210L42 210L70 210L98 210L126 210L154 210L182 210L210 210L238 210L266 210L294 210L322 210L350 210L378 182L406 182L434 182L462 182L490 182L518 182L546 182L574 154" stroke="#3a7cc3" stroke-width="4.67"></path><path d="M569.33 154 a4.67 4.67 0 1 0 9.34 0 a4.67 4.67 0 1 0 -9.34 0zM597.33 126 a4.67 4.67 0 1 0 9.34 0 a4.67 4.67 0 1 0 -9.34 0zM513.33 126 a4.67 4.67 0 1 0 9.34 0 a4.67 4.67 0 1 0 -9.34 0zM457.33 126 a4.67 4.67 0 1 0 9.34 0 a4.67 4.67 0 1 0 -9.34 0zM345.33 182 a4.67 4.67 0 1 0 9.34 0 a4.67 4.67 0 1 0 -9.34 0zM373.33 210 a4.67 4.67 0 1 0 9.34 0 a4.67 4.67 0 1 0 -9.34 0z" fill="#3a7cc3"></path><path d="M154 462L182 462L210 462M238 490L266 462M378 490L406 462L434 462M126 434L154 434M-14 406L14 406L42 406L70 434L98 434L126 434L154 462L182 490L210 490L238 490L266 490L294 490L322 490L350 490L378 490L406 490L434 490L462 490" stroke="rgba(208, 225, 34, 1)" stroke-width="4.67"></path><path d="M457.33 490 a4.67 4.67 0 1 0 9.34 0 a4.67 4.67 0 1 0 -9.34 0zM205.33 462 a4.67 4.67 0 1 0 9.34 0 a4.67 4.67 0 1 0 -9.34 0zM261.33 462 a4.67 4.67 0 1 0 9.34 0 a4.67 4.67 0 1 0 -9.34 0zM429.33 462 a4.67 4.67 0 1 0 9.34 0 a4.67 4.67 0 1 0 -9.34 0zM149.33 434 a4.67 4.67 0 1 0 9.34 0 a4.67 4.67 0 1 0 -9.34 0z" fill="rgba(208, 225, 34, 1)"></path><path d="M-14 182L14 182L42 182L70 182L98 182L126 182" stroke="rgba(208, 225, 34, 1)" stroke-width="4.67"></path><path d="M121.33 182 a4.67 4.67 0 1 0 9.34 0 a4.67 4.67 0 1 0 -9.34 0z" fill="rgba(208, 225, 34, 1)"></path><path d="M574 518L602 490L630 490M210 518L238 546L266 546L294 546M98 462L126 490L154 518L182 546M602 518L630 546M378 518L406 546L434 546L462 546L490 546M322 518L350 546L378 546M-14 434L14 434L42 434L70 462L98 462L126 462L154 490L182 518L210 518L238 518L266 518L294 518L322 518L350 518L378 518L406 518L434 518L462 518L490 518L518 518L546 518L574 518L602 518L630 518L658 546L686 546L714 546" stroke="#3a7cc3" stroke-width="4.67"></path><path d="M709.33 546 a4.67 4.67 0 1 0 9.34 0 a4.67 4.67 0 1 0 -9.34 0zM625.33 490 a4.67 4.67 0 1 0 9.34 0 a4.67 4.67 0 1 0 -9.34 0zM289.33 546 a4.67 4.67 0 1 0 9.34 0 a4.67 4.67 0 1 0 -9.34 0zM177.33 546 a4.67 4.67 0 1 0 9.34 0 a4.67 4.67 0 1 0 -9.34 0zM625.33 546 a4.67 4.67 0 1 0 9.34 0 a4.67 4.67 0 1 0 -9.34 0zM485.33 546 a4.67 4.67 0 1 0 9.34 0 a4.67 4.67 0 1 0 -9.34 0zM373.33 546 a4.67 4.67 0 1 0 9.34 0 a4.67 4.67 0 1 0 -9.34 0z" fill="#3a7cc3"></path><path d="M378 98L406 70M238 154L266 182M210 154L238 182M350 98L378 126L406 126M154 154L182 126M-14 154L14 154L42 154L70 154L98 154L126 154L154 154L182 154L210 154L238 154L266 154L294 126L322 126L350 98L378 98L406 98L434 98L462 70L490 70L518 70L546 70L574 70" stroke="#3a7cc3" stroke-width="4.67"></path><path d="M569.33 70 a4.67 4.67 0 1 0 9.34 0 a4.67 4.67 0 1 0 -9.34 0zM401.33 70 a4.67 4.67 0 1 0 9.34 0 a4.67 4.67 0 1 0 -9.34 0zM261.33 182 a4.67 4.67 0 1 0 9.34 0 a4.67 4.67 0 1 0 -9.34 0zM233.33 182 a4.67 4.67 0 1 0 9.34 0 a4.67 4.67 0 1 0 -9.34 0zM401.33 126 a4.67 4.67 0 1 0 9.34 0 a4.67 4.67 0 1 0 -9.34 0zM177.33 126 a4.67 4.67 0 1 0 9.34 0 a4.67 4.67 0 1 0 -9.34 0z" fill="#3a7cc3"></path></g></g><defs><mask id="SvgjsMask1013"><rect width="1000" height="600" fill="#ffffff"></rect></mask></defs></svg>